<?xml version="1.0" standalone="no"?>
<!DOCTYPE svg PUBLIC "-//W3C//DTD SVG 20010904//EN"
 "http://www.w3.org/TR/2001/REC-SVG-20010904/DTD/svg10.dtd">
<svg version="1.0" xmlns="http://www.w3.org/2000/svg"
 width="512.000000pt" height="512.000000pt" viewBox="0 0 512.000000 512.000000"
 preserveAspectRatio="xMidYMid meet">
<metadata>
Created by potrace 1.14, written by Peter Selinger 2001-2017
</metadata>
<g transform="translate(0.000000,512.000000) scale(0.100000,-0.100000)"
fill="#000000" stroke="none">
<path d="M2258 4605 c-2 -2 -70 -6 -153 -10 -82 -3 -168 -8 -190 -10 -179 -18
-223 -24 -330 -41 -49 -8 -103 -17 -120 -20 -97 -16 -237 -70 -293 -112 -62
-48 -62 -45 -62 -443 l0 -362 -96 -186 c-54 -102 -118 -226 -144 -276 -26 -49
-85 -162 -130 -250 -108 -209 -200 -386 -265 -510 -29 -55 -94 -181 -145 -280
-51 -99 -131 -252 -177 -340 -147 -278 -156 -299 -148 -334 4 -18 17 -38 29
-46 17 -11 118 -40 216 -60 8 -2 38 -8 65 -15 46 -10 107 -24 416 -96 l115
-26 -38 -116 c-44 -136 -46 -152 -15 -187 25 -29 30 -31 152 -39 50 -4 101 -9
115 -11 14 -2 70 -7 125 -11 55 -3 116 -8 135 -10 19 -2 71 -6 115 -9 44 -3
96 -8 115 -10 19 -2 73 -7 120 -11 80 -6 114 -10 133 -13 5 0 5 -31 1 -69 -13
-108 -10 -141 15 -165 l22 -22 706 -2 c770 -2 752 -3 774 54 5 14 7 40 5 57
-3 17 -8 58 -12 92 -6 58 -6 60 17 61 30 0 205 14 239 18 14 2 70 6 125 10 55
4 107 9 115 10 8 2 60 6 115 10 55 4 116 8 135 10 19 2 71 6 115 10 112 7 132
13 155 42 28 36 26 57 -19 187 l-39 114 26 5 c259 56 769 179 787 191 14 9 25
22 26 29 0 6 2 22 5 35 4 22 -20 73 -196 407 -26 50 -91 176 -145 280 -54 105
-114 222 -135 260 -35 65 -70 132 -260 500 -78 150 -154 297 -256 490 -34 67
-74 144 -88 172 l-26 51 0 364 0 363 -25 36 c-47 70 -209 138 -389 164 -21 3
-48 7 -60 10 -30 6 -93 15 -151 21 -27 2 -63 6 -80 9 -16 2 -66 7 -110 10 -44
3 -114 8 -155 11 -74 6 -777 14 -782 9z"/>
</g>
</svg>
